<?xml version="1.0" encoding="utf-8"?>
<!-- Generator: Adobe Illustrator 24.0.1, SVG Export Plug-In . SVG Version: 6.00 Build 0)  -->
<svg version="1.1" xmlns="http://www.w3.org/2000/svg" xmlns:xlink="http://www.w3.org/1999/xlink" x="0px" y="0px"
	 viewBox="0 0 841.89 595.28" style="enable-background:new 0 0 841.89 595.28;" xml:space="preserve">
<style type="text/css">
	.st0{fill:#102C43;}
</style>
<g id="Camada_2">
</g>
<g id="Camada_1">
	<g>
		<g>
			<g>
				<g>
					<path class="st0" d="M261.58,364.04c-9.96,5.18-19.34,7.76-28.14,7.76c-6.6,0-11.71-1.93-15.32-5.79
						c-3.61-3.86-5.41-9.12-5.41-15.77c0-7.23,1.66-14.22,4.98-20.98c3.32-6.76,7.83-12.33,13.52-16.69
						c5.69-4.37,11.88-6.55,18.56-6.55c4.63,0,8.18,1.1,10.66,3.31c2.47,2.2,3.71,5.3,3.71,9.28c0,4.75-1.52,9.13-4.55,13.13
						c-3.03,4-7.55,7.4-13.55,10.18c-6,2.78-13.29,4.52-21.86,5.22c0,5.37,1.17,9.3,3.5,11.81c2.34,2.51,5.38,3.76,9.12,3.76
						c2.97,0,6.96-0.78,11.96-2.35c5-1.56,10.01-4,15.03-7.33L261.58,364.04z M225.22,338.56c6.91-0.66,12.21-1.77,15.9-3.36
						c3.69-1.58,6.6-3.7,8.74-6.34c2.14-2.64,3.21-5.18,3.21-7.62c0-1.54-0.63-2.98-1.88-4.31c-1.25-1.33-2.87-2-4.84-2
						c-2.66,0-5.33,0.85-7.99,2.55c-2.16,1.35-4.15,3.13-5.96,5.33c-1.47,1.74-2.76,3.64-3.88,5.7
						C227.4,330.58,226.3,333.93,225.22,338.56z"/>
					<path class="st0" d="M306.12,370.64c-2.72,0.77-5.23,1.16-7.54,1.16c-5.39,0-9.53-1.25-12.41-3.76
						c-2.88-2.51-4.32-5.69-4.32-9.56c0-2.47,0.35-5.5,1.04-9.09l6.63-33.88h-9.4l1.68-7.91h9.43l2.27-11.55l11.7-1.39l-2.54,12.94
						h16.03l-1.84,7.91h-15.89l-6.86,35.11c-0.66,3.2-0.98,5.31-0.98,6.33c0,1.64,0.57,3.09,1.71,4.36s3.2,1.91,6.18,1.91
						c2,0,4.27-0.38,6.79-1.16L306.12,370.64z"/>
					<path class="st0" d="M364.61,366.07c-8.73,3.82-16.47,5.73-23.22,5.73c-6.6,0-11.67-1.92-15.2-5.77
						c-3.53-3.85-5.3-9.3-5.3-16.38c0-7.5,1.84-14.59,5.53-21.27c3.69-6.69,8.58-12.09,14.68-16.2c6.1-4.12,12.39-6.17,18.88-6.17
						c4.4,0,9.3,0.69,14.71,2.08l-1.85,9.15c-4.56-1.77-8.92-2.66-13.09-2.66c-4.67,0-9.01,1.41-13,4.23
						c-4,2.82-7.28,7.05-9.84,12.7c-2.57,5.64-3.85,11.46-3.85,17.45c0,4.72,1.12,8.11,3.36,10.17c2.24,2.07,5,3.1,8.28,3.1
						c1.62,0,3.6-0.27,5.94-0.81c2.34-0.54,4.85-1.27,7.56-2.2c2.7-0.93,5.6-2.28,8.69-4.05L364.61,366.07z"/>
					<path class="st0" d="M401.03,371.8c-6.99,0-12.19-2.03-15.61-6.09c-3.42-4.06-5.13-9.1-5.13-15.13
						c0-7.46,1.79-14.84,5.36-22.14c3.57-7.3,8.05-12.87,13.44-16.69c5.39-3.83,11.69-5.74,18.91-5.74c7.26,0,12.56,2.04,15.9,6.12
						c3.34,4.08,5.01,9.09,5.01,15.04c0,7.42-1.77,14.75-5.3,22c-3.53,7.25-7.96,12.83-13.29,16.75
						C414.99,369.84,408.56,371.8,401.03,371.8z M403.58,363.23c6.41,0,11.87-3.49,16.39-10.46c4.52-6.98,6.78-14.7,6.78-23.16
						c0-5.02-0.96-8.79-2.87-11.28c-1.91-2.49-4.78-3.74-8.6-3.74c-6.14,0-11.48,3.46-16.01,10.38c-4.54,6.92-6.8,14.65-6.8,23.19
						c0,4.95,0.96,8.7,2.87,11.25C397.24,361.96,399.99,363.23,403.58,363.23z"/>
					<path class="st0" d="M448.29,370.86l12.56-63.25h11.52l-5.12,25.86c4.58-7.78,9.63-14.28,15.17-19.49
						c5.53-5.21,11.15-7.82,16.85-7.82c3.07,0,5.57,0.95,7.51,2.83c1.94,1.89,2.91,4.96,2.91,9.2c0,2.69-0.22,5.16-0.64,7.42
						l-8.99,45.25h-11.52l9.06-45.66c0.19-1.01,0.29-2.06,0.29-3.15c0-1.32-0.35-2.39-1.05-3.21c-0.7-0.82-1.57-1.23-2.62-1.23
						c-3.1,0-6.97,2.45-11.58,7.35c-4.62,4.9-10.75,12.78-18.4,23.63l-4.43,22.25H448.29z"/>
					<path class="st0" d="M552.01,370.64c-2.72,0.77-5.23,1.16-7.54,1.16c-5.39,0-9.53-1.25-12.41-3.76
						c-2.88-2.51-4.32-5.69-4.32-9.56c0-2.47,0.35-5.5,1.04-9.09l6.63-33.88H526l1.68-7.91h9.43l2.27-11.55l11.7-1.39l-2.54,12.94
						h16.03l-1.84,7.91h-15.89l-6.86,35.11c-0.66,3.2-0.98,5.31-0.98,6.33c0,1.64,0.57,3.09,1.71,4.36s3.2,1.91,6.18,1.91
						c2,0,4.27-0.38,6.79-1.16L552.01,370.64z"/>
					<path class="st0" d="M567.31,370.86l12.56-63.25h11.52l-5.12,25.86c2.99-5.2,6.52-10.05,10.59-14.53
						c4.07-4.48,7.72-7.74,10.94-9.76c3.22-2.02,6.79-3.03,10.71-3.03c0.85,0,1.82,0.06,2.91,0.17l-2.5,12.58
						c-1.67-0.58-3.14-0.87-4.42-0.87c-3.76,0-7.73,2.06-11.9,6.17c-4.17,4.12-10.6,12.25-19.29,24.4l-4.48,22.25H567.31z"/>
					<path class="st0" d="M643.85,371.8c-6.99,0-12.19-2.03-15.61-6.09c-3.42-4.06-5.13-9.1-5.13-15.13
						c0-7.46,1.79-14.84,5.36-22.14c3.57-7.3,8.05-12.87,13.44-16.69c5.39-3.83,11.69-5.74,18.91-5.74c7.26,0,12.56,2.04,15.9,6.12
						c3.34,4.08,5.01,9.09,5.01,15.04c0,7.42-1.77,14.75-5.3,22c-3.53,7.25-7.96,12.83-13.29,16.75
						C657.81,369.84,651.38,371.8,643.85,371.8z M646.4,363.23c6.41,0,11.87-3.49,16.39-10.46s6.78-14.7,6.78-23.16
						c0-5.02-0.96-8.79-2.87-11.28c-1.91-2.49-4.78-3.74-8.6-3.74c-6.14,0-11.48,3.46-16.01,10.38c-4.54,6.92-6.8,14.65-6.8,23.19
						c0,4.95,0.96,8.7,2.87,11.25S642.81,363.23,646.4,363.23z"/>
					<path class="st0" d="M691.37,370.86l18.06-90.93h11.45l-18.12,90.93H691.37z"/>
				</g>
				<g>
					<path class="st0" d="M206.12,312.83c1.63-3.24,2.45-6.46,2.45-9.67c0-3.9-1.64-7.55-4.91-10.95
						c-2.45-2.54-7.29-4.13-14.52-4.77v0.4h-23.72l0,0h-2.01l-16.88,85h3.08v-1.98h25.7v1.86c9.58-0.52,16.6-3.07,21.04-7.68
						c5-5.19,7.5-10.78,7.5-16.77c0-2.86-0.59-5.54-1.77-8.05c-1.18-2.51-2.94-4.79-5.28-6.83c-2.34-2.05-5.66-3.8-9.95-5.27
						c5.31-1.89,9.44-4.1,12.4-6.63C202.19,318.96,204.49,316.07,206.12,312.83z M186.65,344.43c0,4.56-1.69,8.46-5.06,11.69
						c-3.37,3.24-9.57,4.85-18.61,4.85h-8.12l6.23-31.63h2.86c5.72,0,10.93,1.29,15.64,3.86
						C184.29,335.78,186.65,339.52,186.65,344.43z M184.45,315.47c-4.2,3.98-9.58,5.97-16.14,5.97h-5.26l5.45-27.67h3.68
						c6.27,0,10.45,0.36,12.54,1.08c2.1,0.72,3.63,1.78,4.59,3.17c0.96,1.4,1.44,3.04,1.44,4.92
						C190.75,307.31,188.65,311.49,184.45,315.47z"/>
					<path class="st0" d="M189.14,286.95v-5.04h-23.72v3.95h15.09C183.44,286.79,186.09,286.84,189.14,286.95z"/>
					<path class="st0" d="M151.59,372.83v3.95h23.72v-4.57c-1.59,0.03-2.8,0.05-4.08,0.61H151.59z"/>
				</g>
			</g>
		</g>
	</g>
</g>
</svg>
