<svg xmlns="http://www.w3.org/2000/svg" viewBox="0 0 115.92 131.66"><defs><style>.cls-1{font-size:15.6px;font-family:MyriadPro-Regular, Myriad Pro;}.cls-1,.cls-3{fill:green;}.cls-2{fill:none;stroke:red;stroke-miterlimit:10;stroke-width:2.01px;}</style></defs><title>Simbolo colorido</title><g id="Camada_1" data-name="Camada 1"><text class="cls-1" transform="translate(100.77 20.62)">R</text><circle class="cls-2" cx="104.67" cy="15.25" r="10.24"/><path class="cls-3" d="M455,187.83a30,30,0,0,0,3.33-13.4q0-8.12-6.68-15.18-5-5.28-19.73-6.61V155h-33.8v-2.76h-2.81L371.75,271h7.59v-2.72h33.8v2.57q19.53-1.08,28.6-10.65,10.18-10.78,10.2-23.23a26.4,26.4,0,0,0-2.41-11.16,29,29,0,0,0-7.18-9.47q-4.78-4.26-13.52-7.31,10.83-3.93,16.85-9.19A38.44,38.44,0,0,0,455,187.83Zm-25.83,45.1A21.48,21.48,0,0,1,422.25,249q-6.93,6.66-25.55,6.66H385.54l8.55-43.43H398a44.11,44.11,0,0,1,21.48,5.3Q429.19,222.82,429.2,232.93Zm-2.6-40.09q-9,8.47-22.9,8.47h-7.46L404,162.05h5.22q13.33,0,17.79,1.53a12.53,12.53,0,0,1,6.51,4.49,12,12,0,0,1,2.05,7Q435.54,184.38,426.6,192.84Z" transform="translate(-371.75 -145.94)"/><path class="cls-3" d="M432,152.64v-6.7h-33.8v6.49H420.9Q427,152.43,432,152.64Z" transform="translate(-371.75 -145.94)"/><path class="cls-3" d="M379.34,270.91v6.69h33.8v-6.76c-1.66,0-3.35.07-5.11.07Z" transform="translate(-371.75 -145.94)"/></g></svg>
