<svg xmlns="http://www.w3.org/2000/svg" viewBox="0 0 574.35 274.05"><defs><style>.cls-1,.cls-2{fill:#fff;}.cls-2{font-size:30px;font-family:Orkney-LightItalic, Orkney;font-weight:300;font-style:italic;}.cls-3{letter-spacing:-0.01em;}.cls-4{letter-spacing:0em;}.cls-5{letter-spacing:-0.01em;}.cls-6{letter-spacing:-0.01em;}.cls-7{letter-spacing:0em;}</style></defs><title>LOGO FINAL COMPLETA branca</title><g id="Camada_1" data-name="Camada 1"><path class="cls-1" d="M261.58,364q-14.94,7.77-28.14,7.76-9.9,0-15.32-5.8t-5.41-15.76a47,47,0,0,1,5-21,46.43,46.43,0,0,1,13.52-16.7A29.9,29.9,0,0,1,249.77,306q6.95,0,10.66,3.31t3.7,9.28a21.27,21.27,0,0,1-4.54,13.13q-4.56,6-13.56,10.18t-21.86,5.22q0,8.06,3.51,11.81a11.84,11.84,0,0,0,9.12,3.77,42.46,42.46,0,0,0,12-2.35,59.21,59.21,0,0,0,15-7.32Zm-36.36-25.48q10.36-1,15.89-3.36a22.38,22.38,0,0,0,8.75-6.34q3.21-4,3.21-7.62a6.21,6.21,0,0,0-1.88-4.31,6.37,6.37,0,0,0-4.84-2,14.78,14.78,0,0,0-8,2.55,24.72,24.72,0,0,0-6,5.33,33.45,33.45,0,0,0-3.88,5.7A43.43,43.43,0,0,0,225.22,338.56Z" transform="translate(-146.53 -145.94)"/><path class="cls-1" d="M306.12,370.64a27.82,27.82,0,0,1-7.54,1.16q-8.08,0-12.41-3.76a12.13,12.13,0,0,1-4.32-9.56,48.75,48.75,0,0,1,1-9.09l6.63-33.88h-9.4l1.67-7.91h9.43l2.27-11.55,11.7-1.39-2.54,12.94h16l-1.84,7.91H301l-6.85,35.11a40.45,40.45,0,0,0-1,6.33,6.38,6.38,0,0,0,1.71,4.37q1.71,1.9,6.18,1.91a23.63,23.63,0,0,0,6.8-1.16Z" transform="translate(-146.53 -145.94)"/><path class="cls-1" d="M364.61,366.07q-13.1,5.73-23.22,5.73-9.92,0-15.21-5.77t-5.3-16.37a43.34,43.34,0,0,1,5.54-21.27,45.75,45.75,0,0,1,14.68-16.2A33.3,33.3,0,0,1,360,306a59.51,59.51,0,0,1,14.71,2.09l-1.85,9.15a35.92,35.92,0,0,0-13.09-2.67,22.11,22.11,0,0,0-13,4.24q-6,4.23-9.84,12.7A41.66,41.66,0,0,0,333.05,349c0,4.71,1.12,8.11,3.35,10.17a11.75,11.75,0,0,0,8.29,3.1,26.51,26.51,0,0,0,5.93-.81,75.36,75.36,0,0,0,7.56-2.2,49.8,49.8,0,0,0,8.69-4.05Z" transform="translate(-146.53 -145.94)"/><path class="cls-1" d="M401,371.8q-10.47,0-15.6-6.09t-5.13-15.12a50,50,0,0,1,5.36-22.14q5.35-11,13.43-16.7A31.86,31.86,0,0,1,418,306q10.89,0,15.9,6.12a23,23,0,0,1,5,15,49.8,49.8,0,0,1-5.3,22q-5.3,10.86-13.29,16.75T401,371.8Zm2.55-8.57q9.62,0,16.39-10.47a41.68,41.68,0,0,0,6.78-23.16q0-7.53-2.87-11.27t-8.6-3.75q-9.21,0-16,10.38a41.36,41.36,0,0,0-6.81,23.19q0,7.43,2.87,11.25A9.66,9.66,0,0,0,403.58,363.23Z" transform="translate(-146.53 -145.94)"/><path class="cls-1" d="M448.29,370.86l12.56-63.26h11.52l-5.13,25.86A87.6,87.6,0,0,1,482.41,314q8.29-7.83,16.85-7.82a10.3,10.3,0,0,1,7.51,2.83q2.91,2.83,2.91,9.2a39.76,39.76,0,0,1-.64,7.42l-9,45.26H488.53l9.06-45.66a17,17,0,0,0,.29-3.15,4.73,4.73,0,0,0-1.05-3.2,3.3,3.3,0,0,0-2.62-1.23q-4.65,0-11.58,7.35t-18.4,23.64l-4.42,22.25Z" transform="translate(-146.53 -145.94)"/><path class="cls-1" d="M552,370.64a27.82,27.82,0,0,1-7.54,1.16q-8.09,0-12.41-3.76a12.13,12.13,0,0,1-4.32-9.56,48.75,48.75,0,0,1,1-9.09l6.63-33.88H526l1.68-7.91h9.43l2.27-11.55,11.7-1.39-2.54,12.94h16l-1.84,7.91H546.84L540,350.62a40.45,40.45,0,0,0-1,6.33,6.38,6.38,0,0,0,1.71,4.37q1.71,1.9,6.18,1.91a23.63,23.63,0,0,0,6.8-1.16Z" transform="translate(-146.53 -145.94)"/><path class="cls-1" d="M567.31,370.86l12.57-63.26H591.4l-5.12,25.86a82.68,82.68,0,0,1,10.59-14.53,55.81,55.81,0,0,1,10.94-9.75,19.74,19.74,0,0,1,10.7-3,29.12,29.12,0,0,1,2.91.17l-2.5,12.58a13.7,13.7,0,0,0-4.42-.87q-5.65,0-11.9,6.17t-19.29,24.41l-4.48,22.25Z" transform="translate(-146.53 -145.94)"/><path class="cls-1" d="M643.85,371.8q-10.47,0-15.6-6.09t-5.13-15.12a50,50,0,0,1,5.36-22.14q5.35-11,13.43-16.7A31.86,31.86,0,0,1,660.82,306q10.89,0,15.9,6.12a23,23,0,0,1,5,15,49.8,49.8,0,0,1-5.3,22q-5.29,10.86-13.29,16.75T643.85,371.8Zm2.55-8.57q9.61,0,16.39-10.47a41.68,41.68,0,0,0,6.78-23.16q0-7.53-2.87-11.27t-8.6-3.75q-9.21,0-16,10.38a41.36,41.36,0,0,0-6.81,23.19q0,7.43,2.87,11.25A9.66,9.66,0,0,0,646.4,363.23Z" transform="translate(-146.53 -145.94)"/><path class="cls-1" d="M691.37,370.86l18.06-90.93h11.44l-18.12,90.93Z" transform="translate(-146.53 -145.94)"/><path class="cls-1" d="M206.12,312.83a21.43,21.43,0,0,0,2.45-9.67q0-5.85-4.91-11-3.67-3.81-14.52-4.77v.4H163.41l-16.88,85h3.08v-2h25.7v1.85q14.37-.78,21-7.68,7.49-7.78,7.5-16.76a18.54,18.54,0,0,0-1.78-8,20.82,20.82,0,0,0-5.28-6.83,29.51,29.51,0,0,0-9.94-5.27,39.2,39.2,0,0,0,12.39-6.64A27.76,27.76,0,0,0,206.12,312.83Zm-19.47,31.6a15.62,15.62,0,0,1-5.06,11.69Q176.54,361,163,361h-8.13l6.23-31.62h2.86a32,32,0,0,1,15.65,3.86Q186.64,337.06,186.65,344.43Zm-2.2-29q-6.31,6-16.14,6h-5.26l5.45-27.67h3.68q9.39,0,12.54,1.07a8.87,8.87,0,0,1,4.59,3.17,8.49,8.49,0,0,1,1.44,4.92Q190.75,309.5,184.45,315.47Z" transform="translate(-146.53 -145.94)"/><path class="cls-1" d="M189.14,287v-5H165.42v3.95h15.09A30.6,30.6,0,0,0,189.14,287Z" transform="translate(-146.53 -145.94)"/><path class="cls-1" d="M151.59,372.83v4h23.72v-4.57a10,10,0,0,0-4.08.61Z" transform="translate(-146.53 -145.94)"/><path class="cls-1" d="M455,187.83a30,30,0,0,0,3.33-13.4q0-8.12-6.68-15.18-5-5.28-19.73-6.61V155h-33.8v-2.76h-2.81L371.75,271h7.59v-2.72h33.8v2.57q19.53-1.08,28.6-10.65,10.18-10.78,10.2-23.23a26.4,26.4,0,0,0-2.41-11.16,29,29,0,0,0-7.18-9.47q-4.78-4.26-13.52-7.31,10.83-3.93,16.85-9.19A38.44,38.44,0,0,0,455,187.83Zm-25.83,45.1A21.48,21.48,0,0,1,422.25,249q-6.93,6.66-25.55,6.66H385.54l8.55-43.43H398a44.11,44.11,0,0,1,21.48,5.3Q429.19,222.82,429.2,232.93Zm-2.6-40.09q-9,8.47-22.9,8.47h-7.46L404,162.05h5.22q13.33,0,17.79,1.53a12.53,12.53,0,0,1,6.51,4.49,12,12,0,0,1,2.05,7Q435.54,184.38,426.6,192.84Z" transform="translate(-146.53 -145.94)"/><path class="cls-1" d="M432,152.64v-6.7h-33.8v6.49H420.9Q427,152.43,432,152.64Z" transform="translate(-146.53 -145.94)"/><path class="cls-1" d="M379.34,270.91v6.69h33.8v-6.76c-1.66,0-3.35.07-5.11.07Z" transform="translate(-146.53 -145.94)"/><text class="cls-2" transform="translate(20.93 264.54)">G<tspan class="cls-3" x="22.08" y="0">e</tspan><tspan x="38.34" y="0">stão pa</tspan><tspan class="cls-4" x="136.86" y="0">r</tspan><tspan x="148.05" y="0">a ap</tspan><tspan class="cls-5" x="205.95" y="0">o</tspan><tspan x="222.69" y="0">stado</tspan><tspan class="cls-4" x="297.33" y="0">r</tspan><tspan class="cls-6" x="308.52" y="0">e</tspan><tspan class="cls-7" x="324.78" y="0">s </tspan><tspan class="cls-4" x="346.62" y="0">r</tspan><tspan class="cls-5" x="357.81" y="0">e</tspan><tspan x="374.07" y="0">sponsáveis</tspan></text></g></svg>